<svg xmlns="http://www.w3.org/2000/svg" viewBox="0 0 160 80" role="img" aria-label="Clownfish side profile">
  <defs>
    <linearGradient id="body" x1="32" x2="120" y1="18" y2="62" gradientUnits="userSpaceOnUse">
      <stop stop-color="#ffb046"/>
      <stop offset="0.58" stop-color="#ff6a22"/>
      <stop offset="1" stop-color="#d33a18"/>
    </linearGradient>
  </defs>
  <path fill="#ff7c25" d="M124 40l28-19v38z"/>
  <path fill="url(#body)" d="M18 40c18-25 70-33 108 0-38 33-90 25-108 0z"/>
  <path fill="#f8fbff" d="M49 20c8 11 8 29 0 40l-10-6c6-9 6-19 0-28zM86 14c10 14 10 38 0 52l-10-4c8-13 8-31 0-44z"/>
  <path fill="#211819" d="M54 17c5 13 5 33 0 46l-5-3c8-11 8-29 0-40zM91 16c7 14 7 34 0 48l-5 2c10-14 10-38 0-52z"/>
  <circle cx="34" cy="35" r="5" fill="#161616"/>
  <circle cx="35.5" cy="33.5" r="1.4" fill="#fff"/>
  <path fill="#e84e20" d="M74 60l18 13-5-22zM72 20l17-12-5 22z"/>
</svg>
