<svg xmlns="http://www.w3.org/2000/svg" viewBox="0 0 160 80" role="img" aria-label="Puffer fish side profile">
  <defs>
    <radialGradient id="body" cx="48%" cy="42%" r="55%">
      <stop stop-color="#fff5b8"/>
      <stop offset="0.62" stop-color="#d6bf64"/>
      <stop offset="1" stop-color="#8b7435"/>
    </radialGradient>
  </defs>
  <path fill="#b79d4c" d="M121 40l25-14-4 14 4 14z"/>
  <path fill="url(#body)" d="M20 41c16-28 75-38 106-1-25 38-89 29-106 1z"/>
  <path fill="#6b5a2e" opacity=".8" d="M61 23l5-12 5 13 9-9-2 14 13-4-8 11 14 2-13 6 10 10-15-1 2 14-11-10-6 13-5-14-12 8 5-14-14 2 10-10-13-4 14-3-8-12z"/>
  <circle cx="37" cy="35" r="5.5" fill="#201d13"/>
  <circle cx="38.5" cy="33.5" r="1.5" fill="#fff"/>
  <path fill="#6f5d2d" d="M77 59l17 12-4-21z"/>
</svg>
